<?xml version="1.0" encoding="UTF-8"?>
<svg xmlns="http://www.w3.org/2000/svg" version="1.1" viewBox="0 0 612 792">
  <defs>
    <style>
      .cls-1 {
        fill: #020206;
      }
    </style>
  </defs>
  <!-- Generator: Adobe Illustrator 28.7.1, SVG Export Plug-In . SVG Version: 1.2.0 Build 142)  -->
  <g>
    <g id="Layer_1">
      <path class="cls-1" d="M269.9,399l-14.3-24.6-11.8-20.2-57.1-98.9c-4.3-7.5-15.2-7.5-19.5,0l-19.3,33.4-31.3,54.3c-2.9,5,.7,11.3,6.5,11.3h58.4c2.7,0,5.2,1.4,6.5,3.8l50.7,87.7c1.3,2.3,1.3,5.2,0,7.5l-29.1,50.4c-2.9,5,.7,11.3,6.5,11.3h104.5c7.2,0,11.8-7.8,8.1-14.1l-58.7-101.8Z"/>
      <path class="cls-1" d="M456,399l-14.3-24.6-11.8-20.2-57.1-98.9c-4.3-7.5-15.2-7.5-19.5,0l-19.3,33.4-34.6,59.9c-2,3.5-2,7.8,0,11.3l86.4,149.4c2,3.5,5.7,5.6,9.8,5.6h111c7.2,0,11.8-7.8,8.1-14.1l-58.7-101.8Z"/>
    </g>
  </g>
</svg>