<?xml version="1.0" encoding="UTF-8"?>
<svg xmlns="http://www.w3.org/2000/svg" version="1.1" viewBox="0 0 100 100">
  <defs>
    <style>
      .cls-1 {
        fill: #020206;
      }

      .cls-2 {
        fill: #fff;
      }
    </style>
  </defs>
  <!-- Generator: Adobe Illustrator 28.7.1, SVG Export Plug-In . SVG Version: 1.2.0 Build 142)  -->
  <g>
    <g id="Layer_1">
      <rect class="cls-2" width="100" height="100"/>
      <g id="Layer_1-2" data-name="Layer_1">
        <path class="cls-1" d="M24.2,24.6c-.9-1.5-3-1.5-3.9,0l-10.1,17.5c-.6,1,.1,2.3,1.3,2.3h11.7c.5,0,1,.3,1.3.8l10.1,17.6c.3.5.3,1,0,1.5l-5.8,10.1c-.6,1,.1,2.3,1.3,2.3h20.9c1.4,0,2.4-1.6,1.6-2.8L24.2,24.6Z"/>
        <path class="cls-1" d="M61.4,24.6c-.9-1.5-3-1.5-3.9,0l-10.8,18.7c-.4.7-.4,1.6,0,2.3l17.3,29.9c.4.7,1.1,1.1,2,1.1h22.2c1.4,0,2.4-1.6,1.6-2.8,0,0-28.4-49.2-28.4-49.2Z"/>
      </g>
    </g>
  </g>
</svg>